<svg width="2000" height="2000" viewBox="0 0 2000 2000" fill="none" xmlns="http://www.w3.org/2000/svg">
<rect width="2000" height="2000" fill="white"/>
<path d="M1055 270.308V1102L1033 1365H987V233.692C987 225.026 994.026 218 1002.69 218C1031.58 218 1055 241.419 1055 270.308Z" fill="black"/>
<path d="M1713 542C1510 568 1103 910 1019 1072H986.999V1358C985.666 1396 998.799 1470.8 1062 1466C1125.2 1461.2 1146 1358 1176 1268C1206 1178 1333 1023 1409 951C1485 879 1604 816.667 1698 765L1713 542Z" fill="black"/>
<path d="M853.999 1584L853.999 955.031V881.516L888.5 808H923L923 1584H853.999Z" fill="black"/>
<path d="M288 1505C483 1496 784 1279 890.999 1171H923L923 804C923 735.5 887 687 863 690C839 693 882 960 732 1082C582 1204 356 1296 311 1296L288 1505Z" fill="black"/>
<path d="M1100.5 1530C1035 1564 939.5 1535 924 1416L922 1373L854 1416V1592.23C854 1598.73 854.585 1605.26 856.063 1611.59C887.533 1746.21 1005.97 1792.7 1133 1780L1100.5 1530Z" fill="black"/>
</svg>
